<svg xmlns="http://www.w3.org/2000/svg" viewBox="0 0 191.5 175.5">
  <path d="M182.6.5c5.8-1.7 9 1 8.9 9.2l-5.6 115.4c-.1 8.2-3.1 9.2-6.8 8.2L6.9 85.6c-3.7-1-4.9-4.2-2.8-7.2l28-39.1c2.1-3 6.3-6 9.3-6.7L182.6.5z" fill="#fe5000"/>
  <path d="M46.6 71.6c-6.4-.8-8.1-6.1-5.1-12.2s9.4-11 15.2-11.3 7.7 5.2 5.1 12.2-9 12.1-15.2 11.3zm25.7-10.8c2.1-6.5 2-12.5-.3-16.7-2.2-4-6.3-5.7-11.4-5.1s-11 3.2-16.6 7.1c-5.7 3.7-10.2 8.1-13 12.9-3.2 5.4-3.2 10.6-.1 14.8 2.9 3.7 7.1 6.2 11.7 7 6.3 1.1 12.7-.3 18-3.8 5.6-4 9.7-9.7 11.7-16.2zM91 36.3l9.9-1.2-4.7 20.7 13.9.1 4-22.4 9.9-1.2-9 60.8-11.2-2.1 4.2-23.4-14.2-1L89 88.3l-11.2-2.1L91 36.3zM150.6 85c-6.4-.8-9.7-10.1-8.6-21.2s5.9-20.1 11.6-20.4 9.3 9.2 8.6 21.2-5.4 21.2-11.6 20.4zm22.2-19.9c.4-10.9-1.3-20.9-4.8-28.2-3.4-7-8.2-10.5-13.2-9.9s-10.4 5.1-14.7 12c-4.7 7.3-7.7 15.7-8.6 24.3-1.2 10.4.5 19.9 4.9 27.3 3.4 5.9 8.2 9.8 13.2 10.7 5.8 1.1 11.6-1.8 16.1-8.6 4.2-6.8 6.7-16.6 7.1-27.6zM0 122.1l.6-27.2 4.1 1.2-.6 27.2-4.1-1.2zm10.9 3.2l.6-27.2 4.4 1.3 5.3 17.8h.1l.4-16.1 3.7 1.1-.6 27.2-3.9-1.1-5.8-19.3H15l-.4 17.5-3.7-1.2zm33.4-17.6l-.1 4.6-4.7-1.4-.5 22.6-4.1-1.2.5-22.6-4.7-1.4.1-4.6 13.5 4zm4.6 28.7l.6-27.2 11.1 3.2-.1 4.6-7-2.1-.2 6.2 5.4 1.6-.1 4.6-5.4-1.6-.2 7.3 7.3 2.1-.1 4.6-11.3-3.3zm27 7.9l-3.3-12.1-1.9-.6-.3 11.1-4.1-1.2.7-27.2 5.9 1.7c4.9 1.4 7.1 5.1 7 10.2-.1 3.4-1.1 5.5-3.4 6l3.7 13.3-4.3-1.2zm-5.1-16.9l2.1.6c1.8.5 2.9-.3 3-2.9s-1-4.1-2.8-4.6l-2.1-.6-.2 7.5zM84 146.7l5.9-25.6 5.2 1.5 4.5 28.7-3.9-1.1-.9-6-5.6-1.6-1.3 5.4-3.9-1.3zm6-8.6l4 1.2-1.6-11.6h-.1L90 138.1zm18.5 7.6c-.1 3 .9 4.1 2.6 4.6s2.7-.1 2.7-3.1v-1.8l4.1 1.2v1.1c-.2 6.7-3 8.3-6.9 7.1s-6.7-4.4-6.5-11.1l.2-9.7c.2-6.7 3-8.3 6.9-7.1s6.7 4.4 6.5 11.1v.1l-4-1.2v-.8c.1-3-.9-4.1-2.6-4.6s-2.7.1-2.7 3.1l-.3 11.1zm28.1-11l-.1 4.6-4.7-1.4-.5 22.6-4.1-1.2.5-22.6-4.7-1.4.1-4.6 13.5 4zm4.8 28.8l.6-27.2 4.1 1.2-.6 27.2-4.1-1.2zm9.9-24.5l4 1.2 3.3 20.5h.1l4.2-18.3 4 1.2-6 25.6-4.6-1.4-5-28.8zm19.9 33.2l.6-27.2 11.1 3.2-.1 4.6-7.1-2.1-.1 6.2 5.4 1.6-.1 4.6-5.4-1.6-.2 7.1 7.4 2.1-.1 4.6-11.4-3.1z" fill="#fff"/>
</svg>
