<svg height="231" viewBox="0 0 260 231" width="260" xmlns="http://www.w3.org/2000/svg" xmlns:xlink="http://www.w3.org/1999/xlink"><mask id="a" fill="#fff"><path d="m.16953488.22244422h242.26534912v44.65980728h-242.26534912z" fill="#fff" fill-rule="evenodd"/></mask><g fill="none" fill-rule="evenodd"><path d="m174.520452 89.2622111-.237084.9409447c-2.424467-4.809588-6.629887-7.5105528-9.226523-8.4316583-2.59099-.9324422-4.086877-1.0203015-4.086877-1.0203015s1.419682 3.1714372 1.524112 4.6367035c.076205.9664523.189102 1.8167035-.581421 3.1374271-.637869 1.1138292-1.625719 1.6778292-2.921214 1.6778292-2.142224 0-3.564729-.8672563-4.419925-1.6721608 1.315252-1.5106131 1.552336-2.9532061 1.478953-4.0018493-.132654-1.9102311-1.363233-3.3358191-2.427289-4.2314171.855196-2.29001 3.56755-6.6376281 11.876783-6.6376281 8.475756 0 9.726092 6.3655477 9.726092 10.1576683 0 2.5479196-.688673 5.4189347-.705607 5.4444423zm-68.582215-4.7330654c-.07056 1.0486432.174991 2.4940704 1.478953 4.0018493-.843906.7992362-2.266411 1.6721608-4.411457 1.6721608-1.30114 0-2.286168-.564-2.935327-1.6806633-.7959247-1.3915779-.705607-2.6046031-.5898874-3.2111156.3556261-1.8592161 1.5608034-4.5601809 1.5608034-4.5601809s-1.4902426.1048643-4.0981675 1.0203015c-2.6192146.912603-6.8161672 3.6220703-9.2406342 8.4316583l-.2399065-.9409447c0-.0255076-.7056073-2.9135277-.7056073-5.4444423 0-3.7921206 1.2729157-10.1576683 9.7430266-10.1576683 8.2979429 0 11.0074749 4.3306131 11.8711389 6.6461307-1.072524.8870954-2.294636 2.3126834-2.432935 4.2229145zm64.582832-41.9655678c-7.789905 0-13.849662 3.0467337-17.33254 5.3735879-5.56583-32.8055276-20.011025-45.99575876-20.651716-46.56259294l-1.535402-1.37457286-1.549514 1.37457286c-.637869.56683418-15.074596 13.75989954-20.631959 46.56259294-3.482878-2.3268542-9.5454567-5.3735879-17.3466519-5.3735879-15.1225772 0-24.4732861 13.3971256-24.4732861 25.8079598 0 6.4845829 3.0087098 12.6375678 8.707195 17.7900904 4.1913078 3.7892865 8.3515689 5.7136885 8.5378492 5.7930453l2.3341492 1.0656482c-.5023924 1.6466533-.7902803 3.4775276-.7902803 5.5011256 0 13.3206028 9.5256996 18.0508338 17.6966329 18.0508338 3.753831 0 6.850036-1.023135 8.907588-1.958412 5.859363 17.560523 16.813212 25.164603 17.29867 25.50187l1.309607.884261 1.303963-.884261c.482635-.337267 11.436484-7.941347 17.301492-25.50187 2.057552.935277 5.150934 1.958412 8.913233 1.958412 8.153999 0 17.685343-4.730231 17.685343-18.0508338 0-2.023598-.293533-3.8544723-.79028-5.5011256l2.334149-1.0656482c.166523-.0793568 4.338074-2.0037588 8.535027-5.7930453 5.706952-5.1525226 8.715662-11.3055075 8.715662-17.7900904 0-12.4108342-9.359176-25.8079598-24.478931-25.8079598z" fill="#fffffe"/><path d="m144.759259 134.211152h-.972222v-.655762h.972222c.25 0 .453704.147212.453704.332342 0 .178439-.203704.32342-.453704.32342zm1.240741-.32342c0-.495167-.558642-.887732-1.240741-.887732h-1.759259v3h.787037v-1.224535h.552469l.796296 1.224535h.864198l-.830247-1.273606c.478395-.124907.830247-.455019.830247-.838662z" fill="#fffffe"/><path d="m143.497031 138.24661c-1.5229 0-2.754877-1.236864-2.754877-2.749576 0-1.518644 1.231977-2.74661 2.754877-2.74661 1.519933 0 2.751909 1.227966 2.751909 2.74661 0 1.512712-1.231976 2.749576-2.751909 2.749576zm0-6.24661c-1.938507 0-3.497031 1.563136-3.497031 3.497034 0 1.936864 1.558524 3.502966 3.497031 3.502966 1.935539 0 3.502969-1.566102 3.502969-3.502966 0-1.933898-1.56743-3.497034-3.502969-3.497034z" fill="#fffffe"/><path d="m170.742936 44.7546763c-11.601544 0-19.138582 7.2984437-19.138582 7.2984437-4.987871-35.2282106-20.591608-49.05312-20.591608-49.05312s-15.626396 13.8249094-20.600105 49.05312c0 0-7.539871-7.2984437-19.1499123-7.2984437-14.7341876 0-22.2627287 13.2819798-22.2627287 23.4647368 0 14.1868624 15.9634528 21.4457175 15.9634528 21.4457175s-.7817447-3.1388115-.7817447-5.997675c0-3.6506357 1.3029078-12.5015186 12.1255397-12.5015186 13.2245142 0 14.6293882 9.9735029 14.6293882 9.9735029s-5.953722 3.0426677-.484342 6.9280074c0 0-2.039333 4.3038478-7.590854 4.3038478-5.5458549 0-6.8544275-6.557571-5.3334243-8.5596238 0 0-9.6273556 3.3819987-9.6273556 14.5459877 0 11.161161 7.6644967 15.702541 15.4337929 15.702541 6.185979 0 10.341122-3.056807 10.341122-3.056807 5.426894 18.954463 17.337171 26.996607 17.337171 26.996607s11.89045-8.042144 17.325841-26.996607c0 0 4.157975 3.056807 10.332625 3.056807 7.766464 0 15.436625-4.54138 15.436625-15.702541 0-11.163989-9.630188-14.5459877-9.630188-14.5459877 1.523836 2.0020528.22376 8.5596238-5.324927 8.5596238-5.554353 0-7.602184-4.3038478-7.602184-4.3038478 5.477877-3.8853397-.478677-6.9280074-.478677-6.9280074s1.39921-9.9735029 14.620891-9.9735029c10.839627 0 12.12554 8.8508829 12.12554 12.5015186 0 2.8588635-.770415 5.997675-.770415 5.997675s15.952123-7.2588551 15.952123-21.4457175c0-10.182757-7.522876-23.4647368-22.257064-23.4647368" fill="#0c0a09"/><path d="m179.934433 85.2598577c8.201911-10.065405 2.732089-27.168364-11.19366-27.168364-15.399045 0-23.064698 21.0729341-23.064698 21.0729341s-.979375-.2610706-2.348242-.5675447c-.474164-.0794563-.849544-.1731011-1.354754-.2752592-.815676-.1617502-1.690621-.3263382-2.559922-.4370094 1.964394-8.0194064 13.310464-29.7819072 29.948545-29.7819072 12.607686 0 19.638298 8.720324 19.638298 20.9963155 0 10.6102479-9.065567 16.1608349-9.065567 16.1608349zm-21.913156 19.6625853c5.74924 0 9.957446-6.4529829 9.957446-10.4967387 0-2.7979953-1.577724-5.4796439-1.577724-5.4796439.564481 3.1243334-3.228832 7.0148522-6.717326 7.0148522-3.056665 0-4.654146-2.0318099-4.654146-2.0318099l.344333-.3859304s1.58337 1.4472389 3.95419 1.4472389c5.25532 0 7.228181-5.6101791 6.776596-7.0829576 1.631351 1.3989976 4.800912 4.0749708 4.800912 11.2260338 0 5.5505866-3.914677 12.5001716-12.717759 12.5001716-15.537343 0-19.858446-19.770419-19.858446-19.770419 2.726444-.2582328 7.019323-1.2713 7.019323-1.2713s.290707 14.330503 12.672601 14.330503zm-27.509987 27.077557s-8.924447-5.181683-14.097916-23.624047c0 0 5.752062-7.134037 8.693009-16.2743442h3.925966l-8.704299 18.7460012c3.288103 11.802091 10.18324 17.145525 10.18324 17.145525v-35.8915262h1.684976c.778984-.0056754 1.143074-.0056754 1.961572 0h1.747069c2.935301 9.1403072 8.676074 16.2743442 8.676074 16.2743442-5.156535 18.442364-14.069691 23.624047-14.069691 23.624047zm-27.690621-20.366341c-8.8059056 0-12.7149373-6.949585-12.7149373-12.5001716 0-7.151063 3.1582718-9.8270362 4.7896222-11.2260338-.4459401 1.4727785 1.524099 7.0829576 6.7765961 7.0829576 2.37082 0 3.962657-1.4472389 3.962657-1.4472389l.347156.3859304s-1.611594 2.0318099-4.665436 2.0318099c-3.4941386 0-7.2733396-3.8905188-6.7201481-7.0148522 0 0-1.5720799 2.6816486-1.5720799 5.4796439 0 4.0437558 4.2166739 10.4967387 9.968736 10.4967387 11.442033 0 14.13743-14.0098403 14.13743-14.0098403s2.811116.6924045 5.551672.9506373c0 0-4.318281 19.770419-19.861268 19.770419zm-10.5614419-53.5421653c-13.9229266 0-19.3927486 17.102959-11.190838 27.168364 0 0-9.0683891-5.550587-9.0683891-16.1608349 0-12.2759915 7.0475467-20.9963155 19.6354755-20.9963155 16.6493705 0 27.9982635 21.7625008 29.9513675 29.7819072-3.005862.4057945-6.262918 1.2798133-6.262918 1.2798133s-7.668476-21.0729341-23.0646979-21.0729341zm28.5119409 31.2036067s-9.505862-.8257776-9.505862-4.5715725c0-2.8888024 7.315675-5.3746481 19.245984-5.3746481 6.04277 0 15.432913.5561938 15.432913 4.216857 0 3.6549877-15.432913 3.2548687-15.432913 3.2548687-19.404039 0-13.770517-2.0374854-18.001303-2.0374854 2.272036 3.6606632 8.261181 4.5119803 8.261181 4.5119803zm9.740122-81.2951004s13.680199 15.9111152 16.835649 48.3519692c0 0-8.184976 10.8032131-9.748589 21.268737 0 0-.987842-.0879694-2.257924-.1759388 2.133738-12.3157196 9.003473-22.0349223 9.003473-22.0349223-4.112245-27.2421448-13.832609-43.6441861-13.832609-43.6441861v65.4237133c-.824143 0-2.113982.0652676-3.375597.1503993-.412072.0141886-.993487.0737808-1.478941.1049958-1.26726.0879694-2.249457.1759388-2.249457.1759388-1.569258-10.4655239-9.759879-21.268737-9.759879-21.268737 3.175207-32.440854 16.863874-48.3519692 16.863874-48.3519692z" fill="#ba2229"/><g fill="#fffffe"><path d="m116 55.1929142s6.940122 9.6187082 9.095723 21.8070858c.479022-.036509.989409-.0758263 1.494094-.1039101-1.522607-13.6964788-7.347862-21.624541-7.347862-21.624541 1.431365-19.7625837 10.758045-43.2715489 10.758045-43.2715489s-9.839919 16.2324476-14 43.1929142"/><path d="m142 113.341896s-4.14248-10.148594-7.707784-21.341896h-2.292216c1.012533 5.4371647 6.032322 22.316371 6.032322 22.316371-1.698549 7.968461-5.94657 13.683629-5.94657 13.683629s5.676121-3.590636 9.914248-14.658104"/><path d="m114 83.9625751s11.243746-2.121 28-1.581c-12.279245-2.949-25.436171-.126-25.436171-.126z"/><path d="m92.4186467 52.1517285c10.3512293 0 15.5813533 8.1955953 15.5813533 8.1955953s-5.174217-10.3473238-17.3228644-10.3473238c-8.8836636 0-16.6771356 8.3746728-16.6771356 17.798628 0 9.415561 3.7262189 13.201372 3.7262189 13.201372s-2.3844447-3.9564943-2.3844447-10.9936817c0-7.0343894 5.5236373-17.8545898 17.0768725-17.8545898"/><path d="m170.15558 51c-15.477317 0-24.672975 19.4512403-27.15558 27.7272271.467576.0871748.921236.182786 1.335931.2727729 2.638464-6.5296776 12.184804-26.6530079 26.916226-26.6530079 7.172279 0 11.747843 4.5584011 11.747843 4.5584011s-4.575564-5.9053932-12.84442-5.9053932"/><path d="m240.174873 221.214442h-.651953v-.659737h.651953c.166383 0 .305602.150984.305602.338074 0 .173961-.139219.321663-.305602.321663zm.825127-.321663c0-.498906-.370119-.892779-.825127-.892779h-1.174873v3h.52292v-1.224289h.373515l.529711 1.224289h.573854l-.550085-1.270241c.319185-.124726.550085-.459518.550085-.83698z"/><g transform="translate(0 179)"><path d="m240.411767 44.3955578c-.878755 0-1.593627-.7979513-1.593627-1.7826572s.714872-1.776998 1.593627-1.776998c.881582 0 1.590803.7922921 1.590803 1.776998s-.709221 1.7826572-1.590803 1.7826572zm0-4.0491785c-1.11893 0-2.02029 1.0158317-2.02029 2.2665213 0 1.2563489.90136 2.2693509 2.02029 2.2693509 1.116105 0 2.023117-1.013002 2.023117-2.2693509 0-1.2506896-.907012-2.2665213-2.023117-2.2665213z" mask="url(#a)"/><path d="m2.02311628 32.1801116v-1.1686309c.91548837-.432931 1.50603488-.7809736 1.75751163-1.0328093.14975581-.1358215.25430232-.3112576.31363953-.5206491.12997675-.4159533.22039535-1.3186004.26277907-2.6966227.07911628-2.0543002.11867442-3.2766937.11867442-3.6643509v-12.1022617c0-2.04015211-.02543023-4.03220079-.07063953-5.98180526-.04803489-1.42612576-.1525814-2.26935091-.33059303-2.52967545-.1667093-.26032455-.44644186-.45556795-.82506977-.58573023-.38710465-.12733265-1.46647674-.20656186-3.2494186-.23485801v-1.44027383c3.65347674.10469574 5.91959302.1556288 6.78704651.1556288.95787209 0 3.10813954-.05093306 6.45080229-.1556288v1.44027383c-1.7829418.02829615-2.8651395.10752536-3.24659299.23485801-.38145348.13016228-.64988372.30276877-.79963953.52913794-.18083721.29993914-.29386047 1.0271501-.33624419 2.18163286-.01977907.29993914-.05933721 2.42780933-.11302325 6.38644014v15.1129716c0 1.5760954.03673256 2.8550812.11302325 3.8454463 1.70382561.1046957 3.40200001.1556288 5.08039531.1556288 4.2242442 0 7.1826279-.2659838 8.8751512-.8092698.2006163-.4499087.3673256-.9677282.519907-1.5534584l.8957093-3.7322617h1.5060349c-.3305931 2.2325659-.6498838 4.8612779-.9606977 7.8748175-.6188023.1216734-1.1048023.198073-1.4636512.2207099-.7798604.0509331-1.9807325.0707404-3.5969651.0707404l-13.30566278-.1556288c-1.43822093 0-2.89904651.0537626-4.38247674.1556288" mask="url(#a)"/></g><path d="m32.6763068 194.311852c0 1.456895.1412782 2.934025.42666 4.43717.2853819 1.500255.6442284 2.798164 1.0765396 3.882163.717693 1.841354 1.6586055 3.387859 2.8199119 4.633736 1.1641319 1.251658 2.4582398 2.170889 3.8908003 2.760585 1.4297349.589695 3.0148757.890325 4.7469459.890325 2.4186819 0 4.5152497-.604149 6.3010055-1.809557 1.7772792-1.199625 3.1109449-2.899336 3.9868695-5.078898.8759245-2.185342 1.3138868-4.703111 1.3138868-7.553307 0-2.439721-.3136375-4.682877-.9437381-6.74103-.3871021-1.254549-.9098313-2.393471-1.5484085-3.413876-.6442284-1.020404-1.4156071-1.904948-2.308485-2.668083-.8900524-.757354-2.0457076-1.393301-3.4697914-1.916511-1.4212582-.52321-2.9611901-.78048-4.6084933-.78048-2.3819497 0-4.4700407.543445-6.2699244 1.630335-1.7998837 1.089781-3.1476772 2.662303-4.0575085 4.726237-.9070058 2.061044-1.3562703 4.393811-1.3562703 7.001191zm-4.6763068 1.907839c0-2.422378.3588465-4.659752 1.0708884-6.715015.7092163-2.049481 1.8903017-3.902397 3.5376049-5.544295 1.6501288-1.636116 3.5121749-2.873321 5.5946148-3.708723 2.08244-.835402 4.4672152-1.251658 7.1458489-1.251658 2.4780188 0 4.7215159.352661 6.7417934 1.066655 2.0231032.711104 3.6873598 1.653461 4.9786421 2.827071 1.299759 1.173609 2.3197873 2.457065 3.0685615 3.850365.5679381 1.046421 1.0200282 2.272063 1.3590958 3.682707.336242 1.407754.5029502 2.919572.5029502 4.526781 0 5.165618-1.6925123 9.466928-5.0860135 12.901038-3.3935012 3.434109-7.6798803 5.145383-12.8450095 5.145383-2.353694 0-4.5491565-.384458-6.589213-1.170719-2.0315798-.777589-3.7579989-1.942527-5.1651292-3.480361-1.4127816-1.540724-2.4780188-3.410984-3.2154908-5.613671-.7289952-2.196905-1.099144-4.370685-1.099144-6.515558z"/><path d="m63 180.457567v-1.457567c2.4237624.105953 4.6792079.157497 6.7607261.157497 2.1123762 0 4.2079208-.051544 6.2922442-.157497v1.457567c-1.7448845.028636-2.8108911.108816-3.1924092.237678-.3871288.131725-.6480198.306404-.779868.535491-.1935644.30354-.3113862 1.039483-.3562707 2.207827-.0224422.30354-.0533003 2.456959-.1150165 6.46312v8.421816c0 3.261628.2075908 5.415047.6171618 6.451666.4095709 1.036619 1.060396 1.898559 1.9524752 2.582957.6844885.515446 1.610231.930667 2.7688119 1.242798 1.1613861.309267 2.4546204.466765 3.8768977.466765 1.6691419 0 3.15033-.211906 4.4435643-.627126 1.2932344-.418084 2.2638614-.927803 2.9118812-1.526293.6508251-.59849 1.1277228-1.26857 1.4503301-2.013103.3198019-.744533.5470297-1.763971.690099-3.061177.1458746-1.297206.2132013-2.940906.2132013-4.928237v-7.010066c0-2.064647-.0364687-4.080614-.109406-6.053627-.030858-1.443249-.1318481-2.296598-.300165-2.560048-.1739274-.263451-.4488449-.461038-.8331683-.592763-.3843234-.128862-1.45033-.209042-3.1980198-.237678v-1.457567c2.4490099.105953 4.2387789.157497 5.3693069.157497 1.0239274 0 2.869802-.051544 5.5376238-.157497v1.457567c-1.7561056.028636-2.8277228.108816-3.2008251.237678-.3787129.131725-.6424092.306404-.7882838.535491-.179538.306404-.2889439 1.039483-.3366337 2.207827-.0140264.30354-.0420792 2.456959-.0869637 6.46312v7.628602c0 3.745574-.2552805 6.362894-.7714521 7.851961-.5105611 1.486202-1.45033 2.794863-2.8193069 3.934571-1.0267327.85335-2.3508251 1.509111-3.9666667 1.981604-1.6074258.469628-3.3971947.701579-5.3636964.701579-2.2891089 0-4.2696369-.274905-5.9556105-.830441-1.6831684-.546945-2.959571-1.280024-3.8404291-2.179191-.8724422-.904894-1.4783828-1.824106-1.8066006-2.769091-.4179868-1.242797-.6227723-3.330354-.6227723-6.259805v-10.059789c0-2.064647-.0252475-4.080614-.0645215-6.053627-.0476897-1.443249-.1542904-2.296598-.3282178-2.560048-.1683168-.263451-.4460396-.461038-.8247525-.592763-.3759076-.128862-1.4531353-.209042-3.2232673-.237678"/><path d="m113 210.51275v1.48725c-3.375695-.105189-5.595208-.160705-6.652546-.160705l-7.347454.160705v-1.48725c1.863072-.029219 2.995293-.111032 3.408644-.24544.410355-.131486.694908-.312644.853658-.540552.188704-.309722.311511-1.063574.35644-2.255711.014976-.324332.056911-2.521605.113821-6.597663v-10.74969c0-2.106694-.017972-4.163715-.065896-6.176908-.047925-1.47264-.164741-2.343368-.347454-2.612184-.179718-.268815-.476252-.470426-.877621-.604834-.410355-.131486-1.557553-.213299-3.441592-.242518v-1.48725c3.022251.108111 5.36457.160705 7.011981.160705 1.58451 0 3.914848-.052594 6.988019-.160705v1.48725c-1.881044.029219-3.01626.111032-3.417629.242518-.404365.134408-.688918.312644-.844673.546396-.191699.309722-.311511 1.060652-.35644 2.252789-.014976.309722-.056911 2.506995-.119812 6.594741v10.74969c0 2.106694.023963 4.160793.071887 6.159377.047925 1.466796.164741 2.340446.347454 2.620949.185709.280503.476252.482114.880617.6136.407359.134408 1.554557.216221 3.438596.24544"/><path d="m114.204557 211.202006c.242012-1.465567.391829-3.847474.437926-7.139942h1.535621c.074908 2.234484.201676 3.555518.377422 3.965992.175747.401803.599267.838293 1.270561 1.295018.677056.462507 1.578837.872981 2.711105 1.231424 1.132268.361333 2.224201.540554 3.281561.540554 1.544264 0 2.973285-.355552 4.269775-1.072437 1.299371-.713994 2.24725-1.650569 2.846517-2.812617.596385-1.156266.896018-2.396361.896018-3.720285 0-1.008842-.152697-1.878933-.452331-2.618943-.296752-.734229-.749083-1.329706-1.356993-1.777759-.610791-.456725-1.368517-.774698-2.270298-.953919-.567575-.089611-1.694081-.248597-3.388162-.468288-1.696962-.222581-3.140387-.465397-4.33604-.722666-1.58748-.491413-2.754321-1.063765-3.503405-1.722836-.751964-.661962-1.356993-1.52049-1.829491-2.592927-.460975-1.072436-.694343-2.228702-.694343-3.465907 0-1.806665.469618-3.509267 1.405972-5.107805.947878-1.598537 2.333682-2.841523 4.17758-3.728957 1.838135-.887434 3.831849-1.329706 5.989785-1.329706 1.29649 0 2.716867.167659 4.252488.514538 1.535621.34688 2.964641.846965 4.295705 1.511818-.218963.965482-.363018 1.861588-.460975 2.69699-.092195.835403-.15846 2.066826-.201676 3.688489h-1.535621c-.048978-2.361673-.118124-3.648019-.207438-3.861929-.380304-.555007-.907543-1.049311-1.561551-1.494473-1.575956-.890325-3.223939-1.335487-4.935306-1.335487-2.22132 0-3.990309.679306-5.31561 2.035028-1.322421 1.347049-1.98219 3.104574-1.98219 5.255228 0 1.30369.233368 2.312532.705867 3.023636.47538.713994 1.325301 1.283455 2.546883 1.711273.844159.291958 2.215558.566571 4.122839.82384 1.913044.257269 3.633054.531882 5.157151.820949 1.434782.427818 2.497904.942356 3.186485 1.529161.68858.592587 1.250393 1.367285 1.69408 2.324095.443688.959701.665532 2.084169.665532 3.373406 0 3.049651-1.261917 5.711954-3.785752 7.981125-2.518072 2.272063-5.776584 3.402313-9.781299 3.402313-3.028025 0-5.76506-.595477-8.228392-1.797994"/><path d="m153 210.51275v1.48725c-3.374251-.105189-5.595808-.160705-6.655689-.160705l-7.344311.160705v-1.48725c1.859281-.029219 2.997006-.111032 3.41018-.24544.407185-.131486.69461-.312644.850299-.540552.191617-.309722.311377-1.063574.356287-2.255711.023953-.324332.062875-2.521605.119761-6.597663v-10.74969c0-2.106694-.023952-4.163715-.071856-6.176908-.047905-1.47264-.158683-2.343368-.344312-2.612184-.17964-.268815-.476048-.470426-.880239-.604834-.407186-.131486-1.553892-.213299-3.44012-.242518v-1.48725c3.020958.108111 5.362275.160705 7.008982.160705 1.586826 0 3.919162-.052594 6.991018-.160705v1.48725c-1.88024.029219-3.017964.111032-3.422156.242518-.401197.134408-.685628.312644-.838323.546396-.194611.309722-.311377 1.060652-.362275 2.252789-.014971.309722-.056887 2.506995-.119761 6.594741v10.74969c0 2.106694.026946 4.160793.077844 6.159377.041917 1.466796.161677 2.340446.341318 2.620949.182634.280503.473054.482114.880239.6136.404192.134408 1.553892.216221 3.443114.24544"/><path d="m164.481777 199.098397h11.341821l-5.598769-13.841322zm-10.481777 12.901603v-1.564269c1.182559-.014457 1.920952-.063611 2.218006-.150355.297055-.078069.562989-.242881.811949-.48287.246131-.234207.602596-.850083 1.066567-1.850521.271592-.563831 1.247628-2.720845 2.933766-6.459476l5.629888-12.970998c.619571-1.428372 1.935098-4.603172 3.946581-9.521511h1.434348l9.630221 23.067905c1.558829 3.738631 2.597105 6.083589 3.106341 7.037764.285738.534916.596938.887672.933599 1.055375.345149.170595 1.103345.26023 2.288734.274687v1.564269c-2.342486-.150355-3.9777-.228424-4.9113-.228424l-7.253786.228424v-1.564269c1.683309-.026023 2.698952-.08096 3.061075-.159029.359295-.075177.602596-.187944.729905-.332516.130139-.147463.18955-.323841.18955-.54359 0-.335407-.101848-.772015-.314029-1.309822l-2.761192-7.034873h-13.033616l-2.444334 5.910103c-.43568 1.058267-.656349 1.833172-.656349 2.318934 0 .21975.06507.393236.183891.532025.164087.199509.421535.338299.766684.413476.554501.124332 1.530537.190835 2.925278.205292v1.564269c-2.540522-.135898-4.436012-.205292-5.700615-.205292-1.456982 0-3.052588.069394-4.781162.205292z"/><path d="m190.180043 211.204441v-1.451395c1.603239-.014257 2.65206-.134019 3.155037-.362136.214337-.088396.368659-.23382.460109-.42772.148607-.302255.257204-1.097814.317219-2.378121.074303-1.990323.114313-3.709756.114313-5.1583v-18.443273c0-.496155-.031436-.821222-.091451-.969498-.120028-.273741-.397237-.595956-.817337-.975201-.271493-.239523-.588712-.393502-.94594-.461937-.35437-.068435-1.145987-.111207-2.371993-.125465v-1.451395c2.617766.059881 4.26673.091247 4.935461.091247 1.145987 0 2.286258-.031366 3.412241-.091247 1.274589 1.670958 2.206239 2.911345 2.80924 3.709755l4.643963 5.765662 6.773041 8.23503c2.169088 2.623347 3.91236 4.687808 5.229817 6.199084.837342.992309 1.537509 1.779314 2.109073 2.352458v-16.518534c0-1.479911-.054298-3.207898-.15718-5.19822-.062872-1.251793-.160038-2.027392-.300071-2.329647-.102882-.1939-.26292-.333621-.477257-.424868-.497261-.211009-1.537509-.325067-3.112169-.339325v-1.451395c1.788997.059881 3.600857.091247 5.43558.091247 1.726125 0 3.292212-.031366 4.698261-.091247v1.451395c-1.580376.014258-2.62634.128316-3.129317.339325-.214336.091247-.362943.242374-.457251.453383-.148607.290849-.26292 1.080705-.317219 2.378121-.080019 1.993174-.114313 3.709756-.114313 5.141191v10.892595c0 2.207033.034294 6.321697.114313 12.34399l-2.340557-.6815-.548702-.114059c-.088592-.028514-.171469-.076989-.248631-.134018-.108597-.074139-.394379-.382097-.863062-.915321-1.2603-1.439989-2.180519-2.523546-2.774947-3.259224l-2.932126-3.735418-16.115266-19.418474v17.579279c0 1.497019.051441 3.262076.15718 5.292318.062873 1.268902.157181 2.047352.297214 2.338201.102882.21386.26292.367839.477257.459086.502976.21386 1.537508.327919 3.115027.342176v1.451395c-1.334604-.102652-2.803525-.15683-4.406764-.15683-1.763277 0-3.672303.054178-5.732793.15683"/><path d="m236.486563 199.098397h11.338048l-5.601132-13.841322zm-10.486563 12.901603v-1.564269c1.188119-.014457 1.929279-.063611 2.220651-.150355.2942-.078069.562942-.242881.809052-.48287.251768-.234207.605375-.850083 1.069307-1.850521.277228-.563831 1.253182-2.720845 2.927864-6.459476l5.637907-12.970998c.613861-1.428372 1.929278-4.603172 3.943423-9.521511h1.437058l9.623762 23.067905c1.558699 3.738631 2.599717 6.083589 3.11174 7.037764.282885.534916.599717.887672.933522 1.055375.336633.170595 1.103253.26023 2.285714.274687v1.564269c-2.34512-.150355-3.983027-.228424-4.91372-.228424l-7.247525.228424v-1.564269c1.674682-.026023 2.695898-.08096 3.055163-.159029.359264-.075177.608204-.187944.732673-.332516.12447-.147463.189533-.323841.189533-.54359 0-.335407-.101838-.772015-.311174-1.309822l-2.76379-7.034873h-13.029703l-2.446959 5.910103c-.432815 1.058267-.653465 1.833172-.653465 2.318934 0 .21975.056577.393236.181046.532025.161245.199509.4215.338299.76662.413476.554455.124332 1.533239.190835 2.925035.205292v1.564269c-2.537482-.135898-4.432815-.205292-5.700141-.205292-1.454031 0-3.052334.069394-4.783593.205292z"/><path d="m21.7776511 157.475166v-.475166h5.2223489v.475166c-1.8472064 0-2.140821.362168-2.140821 2.633692v5.447019c0 3.560845-2.4059293 5.444123-5.3791334 5.444123-2.9475485 0-5.359179-1.883278-5.359179-5.444123v-5.447019c0-2.271524-.267959-2.633692-2.1208666-2.633692v-.475166h6.031927v.475166c-1.8529076 0-2.1237172.362168-2.1237172 2.633692v5.560016c0 2.949503 1.6761688 4.311258 3.9082098 4.311258 2.3403649 0 4.1049031-1.361755 4.1049031-4.311258v-5.560016c0-2.271524-.2879133-2.633692-2.1436716-2.633692"/><path d="m48.1750097 160.108858c0-2.271524-.258052-2.633692-2.0236709-2.633692v-.475166h4.8486612v.475166c-1.7683353 0-2.039969.362168-2.039969 2.633692v10.891142h-.4916569l-8.6569655-11.412666v7.895282c0 2.268626.2770664 2.653973 2.0454016 2.653973v.478063h-4.8568102v-.478063c1.7683353 0 2.0209546-.385347 2.0209546-2.653973v-7.373758c0-2.271524-.2526193-2.633692-2.0209546-2.633692v-.475166h3.0015522l8.1734575 10.801325z"/><path d="m62 171v-.491594c2.1502836 0 2.4612476-.396254 2.4612476-2.729091v-7.582465c0-2.335816-.310964-2.708235-2.4612476-2.708235v-.488615h7v.488615c-2.1502836 0-2.4612476.372419-2.4612476 2.708235v7.582465c0 2.332837.310964 2.729091 2.4612476 2.729091v.491594z"/><path d="m89.4289668 159.451159-4.7739853 11.548841h-.2850553l-4.7878229-11.548841c-.6725092-1.613825-.7776753-1.975993-2.5821033-1.975993v-.475166h6.0055351v.475166c-1.7961255 0-2.2112547.478062-1.6881919 1.726821l3.6863468 8.828228 3.6392989-8.828228c.5175277-1.228477.1079336-1.726821-1.6909594-1.726821v-.475166h5.0479705v.475166c-1.7933579 0-1.904059.362168-2.5710332 1.975993"/><path d="m102 170.508406c1.832863 0 2.103563-.396254 2.103563-2.729091v-7.582465c0-2.335816-.2707-2.708235-2.103563-2.708235v-.488615h10.072289l.200205 3.077676h-.465265l-.112792-.46478c-.307357-1.212598-.5273-1.751862-2.557549-1.751862h-3.270956v5.300277h1.102538c2.210715 0 2.566008-.28006 2.566008-2.240477h.462446v5.341988h-.462446c0-1.960417-.355293-2.240477-2.566008-2.240477h-1.102538v3.405406c0 2.335816.26788 2.708235 2.100743 2.708235h1.897719c2.030248 0 2.27557-.536284 2.560369-1.769738l.112791-.470738h.462446l-.177647 3.10449h-10.822353z"/><path d="m132.000873 160.94169c0-1.677378-.819729-3.080656-2.60323-3.080656h-1.80969v6.161311h1.80969c1.783501 0 2.60323-1.376463 2.60323-3.080655zm.185945 6.602256c1.207333 1.635667 2.584897 2.803575 3.813182 2.96446v.491594h-3.386294l-4.056744-6.134497h-.969009v2.913812c0 2.332837.2488 2.729091 1.951113 2.729091v.491594h-5.539066v-.491594c1.702313 0 1.953732-.396254 1.953732-2.729091v-7.582465c0-2.335816-.251419-2.708235-1.953732-2.708235v-.488615h5.415976c2.84941 0 4.407682 1.775697 4.407682 3.94169 0 2.031921-1.330424 3.640774-3.650808 3.923813z"/><path d="m147.504365 171h-.504365v-4.818618h.504365s.051729 3.943268 4.684772 3.943268c1.797607 0 3.168445-1.009588 3.168445-2.410707 0-1.006792-1.167152-1.859768-2.909797-2.651218l-2.434529-1.071115c-1.471064-.657211-2.812803-1.949261-2.812803-3.616061 0-1.815022 1.749111-3.260887 4.203039-3.260887 1.490462 0 2.33107.4167 3.09085.897723.300679-.218138.604591-.548142.733915-1.012385h.507598v4.821414h-.536696c-.174587-1.750699-.934368-3.831402-3.873262-3.831402-1.416101 0-2.453928.85857-2.453928 1.949261 0 1.135437.885871 1.728326 3.064985 2.715541l2.428064 1.073912c1.952796.852976 2.634982 2.125449 2.634982 3.328006 0 2.391131-2.204979 3.943268-4.810863 3.943268-1.926932 0-3.139347-.87535-3.947624-1.026368-.303912.218138-.611057.542549-.737148 1.026368"/><path d="m166 171v-.491594c2.149007 0 2.460265-.396254 2.460265-2.729091v-7.582465c0-2.335816-.311258-2.708235-2.460265-2.708235v-.488615h7v.488615c-2.152318 0-2.463576.372419-2.463576 2.708235v7.582465c0 2.332837.311258 2.729091 2.463576 2.729091v.491594z"/><path d="m197 160.15216h-.466285l-.114426-.467759c-.30895-1.233454-.534941-1.775697-2.597466-1.775697h-2.935023v9.870611c0 2.332837.291786 2.729091 2.151206 2.729091v.491594h-6.07029v-.491594c1.86228 0 2.148344-.396254 2.148344-2.729091v-9.870611h-2.935022c-2.059665 0-2.285656.542243-2.597466 1.775697l-.114426.467759h-.469146l.200245-3.15216h13.60237z"/><path d="m214.371585 167.779315c0 2.332837.25683 2.729091 2.030054 2.729091v.491594h-5.778688v-.491594c1.775956 0 2.032787-.396254 2.032787-2.729091v-2.264312l-3.549181-5.994467c-.923497-1.540327-1.587431-2.031921-3.106557-2.031921v-.488615h6.098361v.488615c-1.797815 0-1.797815.703128-1.155738 1.775697l3.084699 5.133432 3.120219-5.133432c.748634-1.263248.644809-1.775697-1.150273-1.775697v-.488615h5.002732v.488615c-1.797814 0-2.245902.655458-3.103825 2.031921l-3.52459 5.833582z"/><path d="m236.612802 159.611008c-.742401-.156571-1.353384 1.056854-1.683084 2.65459-.327394 1.583502-.260532 2.967732.477258 3.124303.740096.156571 1.344162-1.081763 1.673862-2.672382.327394-1.594178.258226-2.953499-.468036-3.106511zm-1.321105 6.366035c-1.032906-.217065-1.54936-1.967813-1.164325-3.885808.40809-1.910878 1.565498-3.29155 2.60071-3.067369 1.021378.217065 1.535525 1.942904 1.136657 3.860899-.394256 1.917995-1.551664 3.312901-2.573042 3.092278z"/><path d="m241.30741 161.552207.580864-1.554407c.709295-1.849209 2.095778-2.950993 3.023991-2.99566.939889-.044666 1.211348.619381 1.039132 1.089872-.093405.238224-.291891.399025-.551674.413914-.647998.029778.131351-1.083917-.715133-1.048183-.478701.023822-1.278483.744448-1.952751 2.501345l-.583782 1.55143-.221838.547914-2.419777 6.357587c-.706376 1.849209-1.614157 2.540057-2.501506 2.581746-.893187.044667-1.132538-.589603-.945727-1.048183.102162-.250135.291891-.446669.592539-.45858.647998-.032756-.218919 1.086894.598376 1.048183.446594-.017867.83189-.577692 1.412753-2.084455l2.419777-6.348653z"/><path d="m241.799107 162.7745h-2.799107l.241071-.549h2.758929z"/><path d="m23.0280265 230.612387c1.2020241 0 1.435578-.311266 1.5476839-2.140684l.3332036-5.961025c.1058777-1.829418-.0840794-2.126001-1.2923317-2.126001l.0062281-.384677h4.0918646l-.0124562.384677c-1.2269366 0-1.4386921.296583-1.5321137 2.126001l-.3300895 5.682061c-.1089919 1.835291.0685091 2.126001 1.2674192 2.126001h1.731413c1.3421565 0 1.5196575-.419915 1.7594395-1.388948l.0903075-.369995h.3114052l-.2615804 2.440203h-7.7384196z"/><path d="m51.2243784 222.424455-1.6828381 4.209242h2.8956944zm-2.759248 6.847871c-.3850819.979491-.1455428 1.350727 1.0491207 1.350727l-.0090965.376947h-3.5051546l.0272893-.376947c1.0248635 0 1.2553062-.248442 1.788963-1.547767l3.620376-9.075286h.3638568l2.6197696 9.075286c.3729533 1.262201.5245603 1.547767 1.5797453 1.547767l-.0060643.376947h-4.0327471l.0303214-.376947c1.1734385 0 1.4796847-.394081 1.1825349-1.350727l-.5609461-1.981828h-3.3444511z"/><path d="m76.7777325 224.839295h.6566068c1.3360522 0 1.5815661-.223171 1.644372-1.756006h.2854812l-.2084013 4.193273h-.2854812c.0827895-1.538708-.1455955-1.756007-1.4759381-1.756007h-.6594616l-.1541599 2.951148c-.0799347 1.829418.0656607 2.140684 1.187602 2.140684l-.0256933.387613h-3.7426591l.0285481-.387613c1.1076672 0 1.3160685-.311266 1.4188418-2.140684l.2997553-5.961025c.1113377-1.829418-.0685155-2.126001-1.1790375-2.126001l.0114192-.384677h6.4147635l.0057096 2.422584h-.2911909l-.0428222-.364122c-.1284665-.954351-.2512234-1.377202-1.4787928-1.377202h-2.1924959z"/><path d="m101.222795 222.424455-1.6853594 4.209242h2.8948164zm-2.7644743 6.847871c-.3819339.979491-.1394362 1.350727 1.0457714 1.350727l-.0060624.376947h-3.4980297l.0242498-.376947c1.0215216 0 1.2518945-.248442 1.7823583-1.547767l3.6283719-9.075286h.354653l2.625038 9.075286c.369809 1.262201.52137 1.547767 1.585329 1.547767l-.009094.376947h-4.034556l.027281-.376947c1.173083 0 1.482268-.394081 1.19127-1.350727l-.566838-1.981828h-3.3434374z"/><path d="m125.931143 228.512214c-.10747 1.800105.059391 2.106383 1.153889 2.106383l-.005656.381403h-3.741656l.016969-.381403c1.102982 0 1.30661-.306278 1.41408-2.106383l.048079-.904386c.263019-5.140268-.964403-6.975046-1.951431-6.975046-.282816 0-.653305.248489-.817338.413186l-.048079-.413186c.370489-.456528.893699-.632782 1.278328-.632782 1.349033 0 2.160715 1.33202 2.511407 5.316522.724009-3.097452 1.606395-5.299186 3.071382-5.299186.763603 0 1.170858.615446 1.13692 1.077752-.019797.274494-.166861.508537-.472303.508537-.650476 0-.330894-.866824-.981371-.866824-1.074701 0-2.42939 4.331232-2.553829 6.801681z"/><path d="m148.023198 230.612387c1.125104 0 1.336785-.311266 1.441176-2.140684l.313174-5.961025c.104391-1.829418-.084093-2.126001-1.200497-2.126001l.002899-.384677h6.29826l-.008699 2.422584h-.292875l-.043496-.364122c-.130489-.954351-.258078-1.377202-1.502071-1.377202h-1.992129l-.217482 4.158035h.664043c1.359984 0 1.600663-.223171 1.673157-1.756006h.287075l-.211682 4.193273h-.292875c.086993-1.538708-.136288-1.756007-1.499171-1.756007h-.669843l-.127589 2.672184c-.104391 1.835291.057995 2.126001 1.183099 2.126001h1.1599c1.246894 0 1.412179-.419915 1.63836-1.388948l.081193-.369995h.292875l-.249379 2.440203h-6.750621z"/><path d="m223.026098 230.612387c1.128003 0 1.339685-.311266 1.444076-2.140684l.307374-5.961025c.104391-1.829418-.075394-2.126001-1.194698-2.126001l.008699-.384677h6.292461l-.011599 2.422584h-.289975l-.043496-.364122c-.139189-.954351-.258078-1.377202-1.504971-1.377202h-1.995029l-.217482 4.158035h.672742c1.357084 0 1.594864-.223171 1.670257-1.756006h.287076l-.217482 4.193273h-.289975c.086993-1.538708-.139188-1.756007-1.493372-1.756007h-.672742l-.127589 2.672184c-.104391 1.835291.057995 2.126001 1.180199 2.126001h1.1599c1.246893 0 1.40638-.419915 1.64126-1.388948l.078293-.369995h.289975l-.249379 2.440203h-6.750621z"/><path d="m177.638225 220.695942-.491467 7.772825c-.12628 1.829418.075085 2.140683 1.399317 2.140683l-.010239.39055h-4.477816l.013652-.39055c1.337884 0 1.593857-.311265 1.716724-2.140683l.481229-7.772825h-1.25256c-1.938567 0-2.201365.405233-2.546075 1.397758h-.47099l.552901-2.0937h6.447099"/><path d="m175 220.4305h6.444228l.555772 2.139h-.470531c-.347784-1.014-.610326-1.428-2.543595-1.428h-1.258158"/><path d="m202.632066 220.698879-.491228 7.772824c-.122807 1.829418.075049 2.140684 1.398636 2.140684l-.013646.387613h-4.46881l.006822-.387613c1.340643 0 1.596491-.311266 1.719298-2.140684l.491228-7.772824h-1.262183c-1.937622 0-2.196881.402296-2.544834 1.394821h-.467349l.54922-2.0937h6.45078"/><path d="m199 220.4305h6.440818l.559182 2.139h-.470531c-.347784-1.014-.610326-1.425-2.547004-1.425h-1.24793"/></g></g></svg>